<svg width="147" height="46" viewBox="0 0 147 46" fill="none" xmlns="http://www.w3.org/2000/svg">
<g id="Component 1">
<path id="List" d="M2.61 36C2.31 36 2.16 35.85 2.16 35.55V12.456C2.16 12.156 2.31 12.006 2.61 12.006H7.704C8.004 12.006 8.154 12.156 8.154 12.456V31.194H12.69C12.99 31.194 13.14 31.344 13.14 31.644V35.55C13.14 35.85 12.99 36 12.69 36H2.61ZM16.4616 36C16.1616 36 16.0116 35.85 16.0116 35.55V16.65C16.0116 16.35 16.1616 16.2 16.4616 16.2H21.2496C21.5496 16.2 21.6996 16.35 21.6996 16.65V35.55C21.6996 35.85 21.5496 36 21.2496 36H16.4616ZM16.3716 14.706C16.1316 14.706 16.0116 14.586 16.0116 14.346V12.06C16.0116 11.82 16.1316 11.7 16.3716 11.7H21.3756C21.5916 11.7 21.6996 11.82 21.6996 12.06V14.346C21.6996 14.586 21.5916 14.706 21.3756 14.706H16.3716ZM25.7825 36C25.4825 36 25.3325 35.85 25.3325 35.55V32.634C25.3325 32.358 25.4225 32.178 25.6025 32.094L29.2745 29.916V28.044L25.6025 26.064C25.4225 25.956 25.3325 25.77 25.3325 25.506V19.764C25.3325 19.632 25.3505 19.524 25.3865 19.44C25.4345 19.356 25.5005 19.284 25.5845 19.224L29.4185 16.416C29.5505 16.32 29.6585 16.26 29.7425 16.236C29.8265 16.212 29.9105 16.2 29.9945 16.2H34.3685C34.6685 16.2 34.8185 16.35 34.8185 16.65V19.476C34.8185 19.68 34.8005 19.818 34.7645 19.89C34.7405 19.962 34.6805 20.022 34.5845 20.07L31.1825 21.906V23.994L34.8185 25.794C35.0225 25.878 35.1245 26.058 35.1245 26.334V31.86C35.1245 32.16 35.0225 32.4 34.8185 32.58L30.9845 35.766C30.7925 35.922 30.5525 36 30.2645 36H25.7825ZM43.0383 36C42.7623 36 42.5223 35.898 42.3183 35.694L39.3123 32.706C39.1203 32.502 39.0243 32.262 39.0243 31.986V20.394H38.2683C37.9683 20.394 37.8183 20.244 37.8183 19.944V16.65C37.8183 16.35 37.9683 16.2 38.2683 16.2H39.0243V13.95C39.0243 13.65 39.1743 13.5 39.4743 13.5H44.2623C44.5623 13.5 44.7123 13.65 44.7123 13.95V16.2H46.4583C46.7583 16.2 46.9083 16.35 46.9083 16.65V19.944C46.9083 20.244 46.7583 20.394 46.4583 20.394H44.7123V30.006C44.7123 30.234 44.7843 30.42 44.9283 30.564L46.6923 32.346C46.8123 32.454 46.8723 32.634 46.8723 32.886V35.55C46.8723 35.85 46.7223 36 46.4223 36H43.0383Z" fill="#ffffff"/>
<path id="Games" d="M54.786 37C54.498 37 54.258 36.898 54.066 36.694L50.466 33.094C50.262 32.902 50.16 32.662 50.16 32.374V17.614C50.16 17.338 50.262 17.098 50.466 16.894L54.066 13.294C54.258 13.102 54.498 13.006 54.786 13.006H65.424C65.724 13.006 65.874 13.156 65.874 13.456V17.344C65.874 17.644 65.724 17.794 65.424 17.794H56.766C56.598 17.794 56.454 17.854 56.334 17.974C56.214 18.094 56.154 18.238 56.154 18.406V31.564C56.154 31.732 56.214 31.876 56.334 31.996C56.454 32.116 56.598 32.176 56.766 32.176H60.654V27.37H58.35C58.05 27.37 57.9 27.22 57.9 26.92V23.05C57.9 22.75 58.05 22.6 58.35 22.6H65.73C66.03 22.6 66.18 22.75 66.18 23.05V32.374C66.18 32.662 66.078 32.902 65.874 33.094L62.274 36.694C62.082 36.898 61.842 37 61.554 37H54.786ZM74.453 37C74.177 37 73.937 36.898 73.733 36.694L70.133 33.094C69.929 32.902 69.827 32.662 69.827 32.374V21.826C69.827 21.538 69.929 21.298 70.133 21.106L73.733 17.506C73.937 17.302 74.177 17.2 74.453 17.2H84.083C84.383 17.2 84.533 17.35 84.533 17.65V36.55C84.533 36.85 84.383 37 84.083 37H80.339C80.183 37 80.063 36.97 79.979 36.91C79.907 36.85 79.823 36.778 79.727 36.694L78.827 35.794L77.927 36.694C77.735 36.898 77.495 37 77.207 37H74.453ZM76.559 32.806H77.819C78.203 32.806 78.467 32.728 78.611 32.572C78.755 32.416 78.827 32.14 78.827 31.744V21.394H76.559C76.163 21.394 75.893 21.472 75.749 21.628C75.605 21.784 75.533 22.06 75.533 22.456V31.744C75.533 32.14 75.605 32.416 75.749 32.572C75.893 32.728 76.163 32.806 76.559 32.806ZM89.1764 37C88.8764 37 88.7264 36.85 88.7264 36.55V17.65C88.7264 17.35 88.8764 17.2 89.1764 17.2H97.3664C97.6424 17.2 97.8824 17.302 98.0864 17.506L100.3 19.72H100.966L103.18 17.506C103.384 17.302 103.624 17.2 103.9 17.2H107.806C108.082 17.2 108.322 17.302 108.526 17.506L112.126 21.106C112.33 21.298 112.432 21.538 112.432 21.826V36.55C112.432 36.85 112.282 37 111.982 37H107.176C106.876 37 106.726 36.85 106.726 36.55V22.456C106.726 21.952 106.474 21.7 105.97 21.7H103.432V36.55C103.432 36.85 103.282 37 102.982 37H98.1764C97.8764 37 97.7264 36.85 97.7264 36.55V22.456C97.7264 21.952 97.4744 21.7 96.9704 21.7H94.4324V36.55C94.4324 36.85 94.2824 37 93.9824 37H89.1764ZM124.704 37C124.584 37 124.452 36.982 124.308 36.946C124.176 36.91 124.05 36.88 123.93 36.856L120.726 36.064L117.054 34.84C116.694 34.72 116.514 34.372 116.514 33.796V21.826C116.514 21.538 116.616 21.298 116.82 21.106L120.42 17.506C120.624 17.302 120.864 17.2 121.14 17.2H126.9C127.176 17.2 127.416 17.302 127.62 17.506L131.22 21.106C131.424 21.298 131.526 21.538 131.526 21.826V29.206H121.86L121.734 31.6L124.29 32.446L128.88 32.77C129.084 32.806 129.186 32.944 129.186 33.184V36.55C129.186 36.85 129.036 37 128.736 37H124.704ZM123.984 26.38H124.326C124.914 26.38 125.382 26.158 125.73 25.714C126.09 25.27 126.27 24.67 126.27 23.914V23.554C126.27 22.81 126.09 22.216 125.73 21.772C125.382 21.328 124.914 21.106 124.326 21.106H123.966C123.39 21.106 122.928 21.328 122.58 21.772C122.244 22.216 122.076 22.81 122.076 23.554V23.914C122.076 24.67 122.244 25.27 122.58 25.714C122.928 26.158 123.396 26.38 123.984 26.38ZM135.165 37C134.865 37 134.715 36.85 134.715 36.55V33.634C134.715 33.358 134.805 33.178 134.985 33.094L138.657 30.916V29.044L134.985 27.064C134.805 26.956 134.715 26.77 134.715 26.506V20.764C134.715 20.632 134.733 20.524 134.769 20.44C134.817 20.356 134.883 20.284 134.967 20.224L138.801 17.416C138.933 17.32 139.041 17.26 139.125 17.236C139.209 17.212 139.293 17.2 139.377 17.2H143.751C144.051 17.2 144.201 17.35 144.201 17.65V20.476C144.201 20.68 144.183 20.818 144.147 20.89C144.123 20.962 144.063 21.022 143.967 21.07L140.565 22.906V24.994L144.201 26.794C144.405 26.878 144.507 27.058 144.507 27.334V32.86C144.507 33.16 144.405 33.4 144.201 33.58L140.367 36.766C140.175 36.922 139.935 37 139.647 37H135.165Z" fill="#EA580C"/>
</g>
</svg>
